<svg xmlns="http://www.w3.org/2000/svg" width="17" height="17" viewBox="0 0 17 17">
  <g id="x_icon" transform="translate(0.5 0.5)">
    <path id="Line_1" data-name="Line 1" d="M0,16.5a.5.5,0,0,1-.354-.146.5.5,0,0,1,0-.707l16-16a.5.5,0,0,1,.707,0,.5.5,0,0,1,0,.707l-16,16A.5.5,0,0,1,0,16.5Z" fill="#ed3540" stroke="#ed3540"/>
    <path id="Line_2" data-name="Line 2" d="M16,16.5a.5.5,0,0,1-.354-.146l-16-16a.5.5,0,0,1,0-.707.5.5,0,0,1,.707,0l16,16A.5.5,0,0,1,16,16.5Z" fill="#ed3540" stroke="#ed3540" />
  </g>
</svg>